<svg width="32" height="32" viewBox="0 0 32 32" fill="none" xmlns="http://www.w3.org/2000/svg">
<g filter="url(#filter0_i_252_46)">
<circle cx="16" cy="16" r="16" fill="#1D1D1E"/>
</g>
<circle cx="16" cy="16" r="15.25" stroke="#535355" stroke-width="1.5"/>
<path d="M13.1718 11.724H14.1618C14.3671 11.4673 14.5285 11.0933 14.6458 10.602C14.7705 10.1107 14.8328 9.623 14.8328 9.139C14.8328 7.98767 14.6165 7.148 14.1838 6.62H13.1718V11.724ZM11.6758 13V5.3H14.8658C15.9071 6.224 16.4278 7.478 16.4278 9.062C16.4278 10.6387 15.9401 11.9513 14.9648 13H11.6758ZM19.6372 11.724H21.5732V13H18.7792C18.2952 12.5453 17.9286 11.9697 17.6792 11.273C17.4299 10.5763 17.3052 9.86133 17.3052 9.128C17.3052 8.38733 17.4446 7.676 17.7232 6.994C18.0019 6.312 18.4162 5.74733 18.9662 5.3H21.5732V6.62H19.6372C19.4392 6.84733 19.2669 7.214 19.1202 7.72C18.9809 8.226 18.9112 8.71 18.9112 9.172C18.9112 9.634 18.9809 10.118 19.1202 10.624C19.2669 11.13 19.4392 11.4967 19.6372 11.724ZM3.12127 19.42H3.57127C3.6646 19.3033 3.73794 19.1333 3.79127 18.91C3.84794 18.6867 3.87627 18.465 3.87627 18.245C3.87627 17.7217 3.77794 17.34 3.58127 17.1H3.12127V19.42ZM2.44127 20V16.5H3.89127C4.3646 16.92 4.60127 17.49 4.60127 18.21C4.60127 18.9267 4.3796 19.5233 3.93627 20H2.44127ZM5.0901 20V16.5H5.7751V20H5.0901ZM8.50209 16.5L7.79209 20H6.85209L6.14209 16.5H6.86209L7.13709 18.12L7.30709 19.17H7.33709L7.50709 18.12L7.78209 16.5H8.50209ZM10.4292 20L9.4942 18.065L9.4692 18.075L9.4992 18.665V20H8.8692V16.5H9.3742L10.2942 18.51L10.3192 18.5L10.2642 17.885V16.5H10.8942V20H10.4292ZM11.4741 20V16.5H13.2691V17.1H12.1591V17.935H13.1491V18.515H12.1591V19.42H13.2891V20H11.4741ZM13.6612 18.845V18.275H14.6912V18.845H13.6612ZM16.1255 19.42H17.0055V20H15.7355C15.5155 19.7933 15.3489 19.5317 15.2355 19.215C15.1222 18.8983 15.0655 18.5733 15.0655 18.24C15.0655 17.9033 15.1289 17.58 15.2555 17.27C15.3822 16.96 15.5705 16.7033 15.8205 16.5H17.0055V17.1H16.1255C16.0355 17.2033 15.9572 17.37 15.8905 17.6C15.8272 17.83 15.7955 18.05 15.7955 18.26C15.7955 18.47 15.8272 18.69 15.8905 18.92C15.9572 19.15 16.0355 19.3167 16.1255 19.42ZM17.4723 20V16.5H18.1573V19.42H19.1973V20H17.4723ZM19.6378 20V16.5H20.3228V20H19.6378ZM22.4647 20L21.5297 18.065L21.5047 18.075L21.5347 18.665V20H20.9047V16.5H21.4097L22.3297 18.51L22.3547 18.5L22.2997 17.885V16.5H22.9297V20H22.4647ZM24.0746 17.1H23.3196V16.5H25.5096V17.1H24.7546V20H24.0746V17.1ZM27.3539 16.5C27.5872 16.69 27.7606 16.945 27.8739 17.265C27.9872 17.585 28.0439 17.915 28.0439 18.255C28.0439 18.5917 27.9889 18.9117 27.8789 19.215C27.7689 19.5183 27.5939 19.78 27.3539 20H26.3239C26.0839 19.78 25.9089 19.5183 25.7989 19.215C25.6889 18.9117 25.6339 18.5917 25.6339 18.255C25.6339 17.915 25.6906 17.585 25.8039 17.265C25.9172 16.945 26.0906 16.69 26.3239 16.5H27.3539ZM26.6589 19.42H27.0189C27.1022 19.3233 27.1722 19.1667 27.2289 18.95C27.2889 18.73 27.3189 18.4983 27.3189 18.255C27.3189 18.0117 27.2906 17.7833 27.2339 17.57C27.1772 17.3533 27.1072 17.1967 27.0239 17.1H26.6589C26.5756 17.1967 26.5039 17.3533 26.4439 17.57C26.3872 17.7833 26.3589 18.0117 26.3589 18.255C26.3589 18.4983 26.3872 18.73 26.4439 18.95C26.5039 19.1667 26.5756 19.3233 26.6589 19.42ZM30.0938 20L29.1588 18.065L29.1338 18.075L29.1638 18.665V20H28.5338V16.5H29.0388L29.9588 18.51L29.9838 18.5L29.9288 17.885V16.5H30.5588V20H30.0938Z" fill="white"/>
<defs>
<filter id="filter0_i_252_46" x="0" y="0" width="32" height="32" filterUnits="userSpaceOnUse" color-interpolation-filters="sRGB">
<feFlood flood-opacity="0" result="BackgroundImageFix"/>
<feBlend mode="normal" in="SourceGraphic" in2="BackgroundImageFix" result="shape"/>
<feColorMatrix in="SourceAlpha" type="matrix" values="0 0 0 0 0 0 0 0 0 0 0 0 0 0 0 0 0 0 127 0" result="hardAlpha"/>
<feMorphology radius="10" operator="erode" in="SourceAlpha" result="effect1_innerShadow_252_46"/>
<feOffset/>
<feGaussianBlur stdDeviation="3.61538"/>
<feComposite in2="hardAlpha" operator="arithmetic" k2="-1" k3="1"/>
<feColorMatrix type="matrix" values="0 0 0 0 0.32549 0 0 0 0 0.32549 0 0 0 0 0.333333 0 0 0 0.25 0"/>
<feBlend mode="normal" in2="shape" result="effect1_innerShadow_252_46"/>
</filter>
</defs>
</svg>
