<svg width="32" height="32" viewBox="0 0 32 32" fill="none" xmlns="http://www.w3.org/2000/svg">
<g filter="url(#filter0_i_252_46)">
<circle cx="16" cy="16" r="16" fill="#1D1D1E"/>
</g>
<circle cx="16" cy="16" r="15.25" stroke="#535355" stroke-width="1.5"/>
<path d="M10.4488 20.68H12.2488C12.6221 20.2133 12.9154 19.5333 13.1288 18.64C13.3554 17.7467 13.4688 16.86 13.4688 15.98C13.4688 13.8867 13.0754 12.36 12.2888 11.4H10.4488V20.68ZM7.72875 23V9H13.5288C15.4221 10.68 16.3688 12.96 16.3688 15.84C16.3688 18.7067 15.4821 21.0933 13.7088 23H7.72875ZM22.2041 20.68H25.7241V23H20.6441C19.7641 22.1733 19.0974 21.1267 18.6441 19.86C18.1907 18.5933 17.9641 17.2933 17.9641 15.96C17.9641 14.6133 18.2174 13.32 18.7241 12.08C19.2307 10.84 19.9841 9.81333 20.9841 9H25.7241V11.4H22.2041C21.8441 11.8133 21.5307 12.48 21.2641 13.4C21.0107 14.32 20.8841 15.2 20.8841 16.04C20.8841 16.88 21.0107 17.76 21.2641 18.68C21.5307 19.6 21.8441 20.2667 22.2041 20.68Z" fill="white"/>
<defs>
<filter id="filter0_i_252_46" x="0" y="0" width="32" height="32" filterUnits="userSpaceOnUse" color-interpolation-filters="sRGB">
<feFlood flood-opacity="0" result="BackgroundImageFix"/>
<feBlend mode="normal" in="SourceGraphic" in2="BackgroundImageFix" result="shape"/>
<feColorMatrix in="SourceAlpha" type="matrix" values="0 0 0 0 0 0 0 0 0 0 0 0 0 0 0 0 0 0 127 0" result="hardAlpha"/>
<feMorphology radius="10" operator="erode" in="SourceAlpha" result="effect1_innerShadow_252_46"/>
<feOffset/>
<feGaussianBlur stdDeviation="3.61538"/>
<feComposite in2="hardAlpha" operator="arithmetic" k2="-1" k3="1"/>
<feColorMatrix type="matrix" values="0 0 0 0 0.32549 0 0 0 0 0.32549 0 0 0 0 0.333333 0 0 0 0.25 0"/>
<feBlend mode="normal" in2="shape" result="effect1_innerShadow_252_46"/>
</filter>
</defs>
</svg>
